<svg width="15" height="18" viewBox="0 0 15 18" fill="none" xmlns="http://www.w3.org/2000/svg">
<path d="M9.78333 6.25043L9.495 13.7504M5.505 13.7504L5.21667 6.25043M13.5233 3.57543C13.8083 3.61877 14.0917 3.6646 14.375 3.71377M13.5233 3.57627L12.6333 15.1446C12.558 16.1215 11.7432 16.8757 10.7633 16.8754H4.23667C3.25684 16.8757 2.442 16.1215 2.36667 15.1446L1.47667 3.57543M13.5233 3.57543C12.5616 3.43003 11.5948 3.31968 10.625 3.2446M0.625 3.71293C0.908333 3.66377 1.19167 3.61793 1.47667 3.57543M1.47667 3.57543C2.43844 3.43003 3.4052 3.31968 4.375 3.2446M10.625 3.2446V2.48127C10.625 1.49793 9.86667 0.677934 8.88333 0.647101C7.96135 0.617633 7.03865 0.617633 6.11667 0.647101C5.13333 0.677934 4.375 1.49877 4.375 2.48127V3.2446M10.625 3.2446C8.54477 3.08383 6.45523 3.08383 4.375 3.2446" stroke="#BA1A1A" stroke-width="1.25" stroke-linecap="round" stroke-linejoin="round"/>
</svg>
