<svg width="18" height="21" viewBox="0 0 18 21" fill="none" xmlns="http://www.w3.org/2000/svg">
<path d="M2.25 12.1579C2.25 13.1158 2.44688 14.023 2.84063 14.8796C3.23438 15.7362 3.79688 16.4868 4.52813 17.1316C4.50938 17.0395 4.5 16.9566 4.5 16.8829C4.5 16.8092 4.5 16.7263 4.5 16.6342C4.5 16.0447 4.6125 15.4921 4.8375 14.9763C5.0625 14.4605 5.39063 13.9908 5.82188 13.5671L9 10.5L12.1781 13.5671C12.6094 13.9908 12.9375 14.4605 13.1625 14.9763C13.3875 15.4921 13.5 16.0447 13.5 16.6342C13.5 16.7263 13.5 16.8092 13.5 16.8829C13.5 16.9566 13.4906 17.0395 13.4719 17.1316C14.2031 16.4868 14.7656 15.7362 15.1594 14.8796C15.5531 14.023 15.75 13.1158 15.75 12.1579C15.75 11.2368 15.5766 10.3664 15.2297 9.54671C14.8828 8.72697 14.3812 7.99474 13.725 7.35C13.35 7.58947 12.9562 7.76908 12.5437 7.88882C12.1312 8.00855 11.7094 8.06842 11.2781 8.06842C10.1156 8.06842 9.10781 7.69079 8.25469 6.93553C7.40156 6.18026 6.90938 5.25 6.77813 4.14474C6.04688 4.75263 5.4 5.38355 4.8375 6.0375C4.275 6.69145 3.80156 7.3546 3.41719 8.02697C3.03281 8.69934 2.74219 9.38553 2.54531 10.0855C2.34844 10.7855 2.25 11.4763 2.25 12.1579ZM9 13.5947L7.39687 15.1421C7.19062 15.3447 7.03125 15.575 6.91875 15.8329C6.80625 16.0908 6.75 16.3579 6.75 16.6342C6.75 17.2237 6.97031 17.7303 7.41094 18.1539C7.85156 18.5776 8.38125 18.7895 9 18.7895C9.61875 18.7895 10.1484 18.5776 10.5891 18.1539C11.0297 17.7303 11.25 17.2237 11.25 16.6342C11.25 16.3395 11.1938 16.0678 11.0813 15.8191C10.9688 15.5704 10.8094 15.3447 10.6031 15.1421L9 13.5947ZM9 0V3.64737C9 4.27368 9.22031 4.79868 9.66094 5.22237C10.1016 5.64605 10.6406 5.85789 11.2781 5.85789C11.6156 5.85789 11.9297 5.78882 12.2203 5.65066C12.5109 5.5125 12.7688 5.30526 12.9938 5.02895L13.5 4.42105C14.8875 5.19474 15.9844 6.27237 16.7906 7.65395C17.5969 9.03553 18 10.5368 18 12.1579C18 14.6263 17.1281 16.7171 15.3844 18.4303C13.6406 20.1434 11.5125 21 9 21C6.4875 21 4.35938 20.1434 2.61563 18.4303C0.871875 16.7171 0 14.6263 0 12.1579C0 9.78158 0.810937 7.525 2.43281 5.38816C4.05469 3.25132 6.24375 1.45526 9 0Z" fill="#1B1B1C"/>
</svg>
