<svg width="18" height="21" viewBox="0 0 18 21" fill="none" xmlns="http://www.w3.org/2000/svg">
<path d="M11.97 15.435L13.23 13.965L9.9 10.08V5.25H8.1V10.92L11.97 15.435ZM9 21C7.755 21 6.585 20.7244 5.49 20.1731C4.395 19.6219 3.4425 18.8737 2.6325 17.9287C1.8225 16.9837 1.18125 15.8725 0.70875 14.595C0.23625 13.3175 0 11.9525 0 10.5C0 9.0475 0.23625 7.6825 0.70875 6.405C1.18125 5.1275 1.8225 4.01625 2.6325 3.07125C3.4425 2.12625 4.395 1.37812 5.49 0.826875C6.585 0.275625 7.755 0 9 0C10.245 0 11.415 0.275625 12.51 0.826875C13.605 1.37812 14.5575 2.12625 15.3675 3.07125C16.1775 4.01625 16.8188 5.1275 17.2913 6.405C17.7638 7.6825 18 9.0475 18 10.5C18 11.9525 17.7638 13.3175 17.2913 14.595C16.8188 15.8725 16.1775 16.9837 15.3675 17.9287C14.5575 18.8737 13.605 19.6219 12.51 20.1731C11.415 20.7244 10.245 21 9 21ZM9 18.9C10.995 18.9 12.6938 18.0819 14.0963 16.4456C15.4988 14.8094 16.2 12.8275 16.2 10.5C16.2 8.1725 15.4988 6.19062 14.0963 4.55437C12.6938 2.91812 10.995 2.1 9 2.1C7.005 2.1 5.30625 2.91812 3.90375 4.55437C2.50125 6.19062 1.8 8.1725 1.8 10.5C1.8 12.8275 2.50125 14.8094 3.90375 16.4456C5.30625 18.0819 7.005 18.9 9 18.9Z" fill="#1B1B1C"/>
</svg>
